<svg width="240" height="29" viewBox="0 0 240 29" fill="none" xmlns="http://www.w3.org/2000/svg">
<path d="M69.3409 13.6421C69.0171 11.2301 67.0739 9.73865 63.7671 9.73865C60.4176 9.73865 58.2102 11.2898 58.2188 13.8125C58.2102 15.7727 59.446 17.0426 62.0028 17.554L64.2699 18.0057C65.4119 18.2358 65.9318 18.6534 65.9489 19.3097C65.9318 20.0852 65.0881 20.6392 63.8182 20.6392C62.5227 20.6392 61.6619 20.0852 61.4403 19.0199L57.8693 19.2074C58.2102 21.7131 60.3409 23.2557 63.8097 23.2557C67.2017 23.2557 69.6307 21.5256 69.6392 18.9432C69.6307 17.0512 68.3949 15.9176 65.8551 15.3977L63.4858 14.9205C62.2671 14.6563 61.8153 14.2387 61.8239 13.608C61.8153 12.8239 62.7017 12.3125 63.8267 12.3125C65.0881 12.3125 65.8381 13.0029 66.0171 13.8466L69.3409 13.6421Z" fill="#F8F8F8"/>
<path d="M71.9254 27.9091H75.5561V20.9034H75.6669C76.1698 21.9943 77.2692 23.2131 79.3828 23.2131C82.3658 23.2131 84.6925 20.8523 84.6925 16.4716C84.6925 11.9716 82.2635 9.73865 79.3913 9.73865C77.201 9.73865 76.1527 11.0426 75.6669 12.108H75.505V9.9091H71.9254V27.9091ZM75.4794 16.4546C75.4794 14.1193 76.468 12.6279 78.2323 12.6279C80.0305 12.6279 80.9851 14.1875 80.9851 16.4546C80.9851 18.7387 80.0135 20.3239 78.2323 20.3239C76.4851 20.3239 75.4794 18.7898 75.4794 16.4546Z" fill="#F8F8F8"/>
<path d="M90.8459 23.2472C92.7805 23.2472 94.0334 22.4034 94.6726 21.1847H94.7749V23H98.218V14.1705C98.218 11.0512 95.576 9.73865 92.6612 9.73865C89.5249 9.73865 87.4624 11.2387 86.9595 13.625L90.3175 13.8977C90.5646 13.0284 91.3402 12.3892 92.6442 12.3892C93.88 12.3892 94.5874 13.0114 94.5874 14.0852V14.1364C94.5874 14.9801 93.6925 15.0909 91.4169 15.3125C88.826 15.5512 86.4993 16.4205 86.4993 19.3438C86.4993 21.9347 88.3487 23.2472 90.8459 23.2472ZM91.8857 20.7415C90.7692 20.7415 89.968 20.2216 89.968 19.2244C89.968 18.2017 90.8118 17.6989 92.0902 17.5199C92.8828 17.4091 94.1783 17.2216 94.6129 16.9318V18.321C94.6129 19.6932 93.4794 20.7415 91.8857 20.7415Z" fill="#F8F8F8"/>
<path d="M106.95 23.2557C110.435 23.2557 112.626 21.2102 112.796 18.2017H109.37C109.157 19.5994 108.237 20.3835 106.992 20.3835C105.296 20.3835 104.197 18.9602 104.197 16.4546C104.197 13.983 105.305 12.5682 106.992 12.5682C108.322 12.5682 109.174 13.446 109.37 14.75H112.796C112.643 11.7244 110.35 9.73865 106.933 9.73865C102.961 9.73865 100.506 12.4915 100.506 16.5057C100.506 20.4858 102.918 23.2557 106.95 23.2557Z" fill="#F8F8F8"/>
<path d="M121.087 23.2557C124.325 23.2557 126.507 21.679 127.018 19.25L123.661 19.0284C123.294 20.0256 122.357 20.5455 121.146 20.5455C119.331 20.5455 118.18 19.3438 118.18 17.3921V17.3835H127.095V16.3864C127.095 11.9375 124.402 9.73865 120.942 9.73865C117.089 9.73865 114.592 12.4744 114.592 16.5142C114.592 20.6648 117.055 23.2557 121.087 23.2557ZM118.18 15.1335C118.257 13.6421 119.391 12.4489 121.001 12.4489C122.578 12.4489 123.669 13.5739 123.678 15.1335H118.18Z" fill="#F8F8F8"/>
<path d="M136.428 9.9091H133.964V6.77274H130.334V9.9091H128.544V12.6364H130.334V19.4546C130.317 22.0199 132.064 23.2898 134.697 23.179C135.635 23.1449 136.3 22.9574 136.666 22.8381L136.095 20.1364C135.916 20.1705 135.533 20.2557 135.192 20.2557C134.467 20.2557 133.964 19.983 133.964 18.9773V12.6364H136.428V9.9091Z" fill="#F8F8F8"/>
<path d="M138.793 23H142.423V15.5938C142.423 13.983 143.599 12.875 145.202 12.875C145.705 12.875 146.395 12.9602 146.736 13.071V9.84945C146.412 9.77274 145.96 9.7216 145.594 9.7216C144.128 9.7216 142.926 10.5739 142.449 12.1932H142.313V9.9091H138.793V23Z" fill="#F8F8F8"/>
<path d="M151.971 23.2472C153.906 23.2472 155.158 22.4034 155.798 21.1847H155.9V23H159.343V14.1705C159.343 11.0512 156.701 9.73865 153.786 9.73865C150.65 9.73865 148.587 11.2387 148.085 13.625L151.442 13.8977C151.69 13.0284 152.465 12.3892 153.769 12.3892C155.005 12.3892 155.712 13.0114 155.712 14.0852V14.1364C155.712 14.9801 154.817 15.0909 152.542 15.3125C149.951 15.5512 147.624 16.4205 147.624 19.3438C147.624 21.9347 149.474 23.2472 151.971 23.2472ZM153.011 20.7415C151.894 20.7415 151.093 20.2216 151.093 19.2244C151.093 18.2017 151.937 17.6989 153.215 17.5199C154.008 17.4091 155.303 17.2216 155.738 16.9318V18.321C155.738 19.6932 154.604 20.7415 153.011 20.7415Z" fill="#F8F8F8"/>
<path d="M173.896 9.9091H170.052L167.342 19.2756H167.205L164.487 9.9091H160.651L165.228 23H169.319L173.896 9.9091Z" fill="#F8F8F8"/>
<path d="M181.274 23.2557C184.513 23.2557 186.695 21.679 187.206 19.25L183.848 19.0284C183.482 20.0256 182.544 20.5455 181.334 20.5455C179.518 20.5455 178.368 19.3438 178.368 17.3921V17.3835H187.283V16.3864C187.283 11.9375 184.59 9.73865 181.129 9.73865C177.277 9.73865 174.78 12.4744 174.78 16.5142C174.78 20.6648 177.243 23.2557 181.274 23.2557ZM178.368 15.1335C178.445 13.6421 179.578 12.4489 181.189 12.4489C182.766 12.4489 183.857 13.5739 183.865 15.1335H178.368Z" fill="#F8F8F8"/>
<path d="M193.283 5.54547H189.652V23H193.283V5.54547Z" fill="#F8F8F8"/>
<path d="M196.191 23H199.822V9.9091H196.191V23ZM198.015 8.2216C199.097 8.2216 199.984 7.3949 199.984 6.3807C199.984 5.37501 199.097 4.54831 198.015 4.54831C196.941 4.54831 196.055 5.37501 196.055 6.3807C196.055 7.3949 196.941 8.2216 198.015 8.2216Z" fill="#F8F8F8"/>
<path d="M206.361 15.4318C206.369 13.7443 207.375 12.7557 208.841 12.7557C210.298 12.7557 211.176 13.7102 211.168 15.3125V23H214.798V14.6648C214.798 11.6137 213.009 9.73865 210.281 9.73865C208.338 9.73865 206.932 10.6932 206.344 12.2188H206.19V9.9091H202.73V23H206.361V15.4318Z" fill="#F8F8F8"/>
<path d="M223.558 28.1818C227.299 28.1818 229.958 26.4773 229.958 23.1279V9.9091H226.353V12.108H226.217C225.731 11.0426 224.665 9.73865 222.475 9.73865C219.603 9.73865 217.174 11.9716 217.174 16.429C217.174 20.7841 219.535 22.8125 222.484 22.8125C224.572 22.8125 225.739 21.7642 226.217 20.6818H226.37V23.0767C226.37 24.875 225.219 25.5739 223.643 25.5739C222.04 25.5739 221.231 24.875 220.933 24.0824L217.575 24.5341C218.009 26.5966 220.029 28.1818 223.558 28.1818ZM223.634 20.0852C221.853 20.0852 220.881 18.6705 220.881 16.4119C220.881 14.1875 221.836 12.6279 223.634 12.6279C225.398 12.6279 226.387 14.1193 226.387 16.4119C226.387 18.7216 225.381 20.0852 223.634 20.0852Z" fill="#F8F8F8"/>
<path d="M237.571 23.2216C238.662 23.2216 239.608 22.3097 239.616 21.1761C239.608 20.0597 238.662 19.1477 237.571 19.1477C236.446 19.1477 235.517 20.0597 235.526 21.1761C235.517 22.3097 236.446 23.2216 237.571 23.2216Z" fill="#FF57B2"/>
<path d="M10.3506 0.243958L0.483307 11.4145L10.3506 22.5832L12.6838 19.0127L6.03457 11.4126L12.6838 3.81251L10.3506 0.243958ZM14.6687 22.3164H18.9991L25.8839 0.449726H21.5515L14.6687 22.3164ZM30.5605 0.243958L28.2273 3.81442L34.8765 11.4145L28.2273 19.0146L30.5605 22.5851L40.4278 11.4164L30.5605 0.243958Z" fill="#FF57B2"/>
</svg>
